<svg width="64" height="64" viewBox="0 0 64 64" fill="none" xmlns="http://www.w3.org/2000/svg">
<path d="M49.64 43.9334C49.2667 43.8134 48.4533 43.44 48.4533 43.0134V24.8934C48.4181 21.8767 47.416 18.9509 45.5943 16.5461C43.7727 14.1413 41.2276 12.3843 38.3333 11.5334C38.0981 11.4394 37.8577 11.3593 37.6133 11.2934V10.2934C37.6163 9.27155 37.2135 8.29033 36.4935 7.5653C35.7735 6.84028 34.7951 6.43075 33.7733 6.4267H30.2666C29.2448 6.43074 28.2664 6.84026 27.5463 7.56529C26.8263 8.29032 26.4236 9.27155 26.4266 10.2934V11.2667C19.8399 13.12 15.4933 18.48 15.4933 24.8934V43.0134C15.4933 43.24 15.4933 43.9067 14.5066 43.9334C13.8745 43.9097 13.2442 44.0137 12.6533 44.2392C12.0624 44.4647 11.523 44.8071 11.0675 45.2459C10.6119 45.6846 10.2495 46.2108 10.002 46.7928C9.75452 47.3749 9.62695 48.0009 9.62695 48.6334C9.62695 49.2659 9.75452 49.8918 10.002 50.4739C10.2495 51.056 10.6119 51.5821 11.0675 52.0209C11.523 52.4597 12.0624 52.802 12.6533 53.0275C13.2442 53.2531 13.8745 53.3571 14.5066 53.3334H25.6666C25.9443 54.8145 26.7276 56.1533 27.8827 57.1212C29.0378 58.089 30.493 58.6259 31.9999 58.64C33.3273 58.643 34.6211 58.2226 35.6933 57.44C37.0648 56.4579 38.0092 54.9888 38.3333 53.3334H49.4399C50.0645 53.3588 50.688 53.2594 51.2737 53.041C51.8595 52.8226 52.3958 52.4896 52.8513 52.0614C53.3068 51.6333 53.6724 51.1186 53.9266 50.5475C54.1808 49.9764 54.3186 49.3603 54.3319 48.7353C54.3452 48.1103 54.2337 47.489 54.004 46.9076C53.7743 46.3261 53.431 45.7964 52.9941 45.3493C52.5572 44.9021 52.0355 44.5466 51.4596 44.3035C50.8837 44.0604 50.2651 43.9346 49.6399 43.9334H49.64ZM33.1733 55.7734C32.7967 55.9077 32.3997 55.9753 31.9999 55.9734C31.2046 55.9623 30.4329 55.7015 29.794 55.2277C29.1551 54.7539 28.6814 54.0912 28.4399 53.3334H35.5599C35.3753 53.8934 35.0657 54.4042 34.6545 54.8269C34.2433 55.2496 33.7413 55.5733 33.1866 55.7734H33.1733ZM49.4399 50.6667H14.5066C14.2251 50.6906 13.9417 50.6558 13.6743 50.5644C13.407 50.4731 13.1615 50.3272 12.9535 50.1361C12.7454 49.9449 12.5793 49.7127 12.4657 49.454C12.3521 49.1953 12.2934 48.9159 12.2934 48.6334C12.2934 48.3508 12.3521 48.0714 12.4657 47.8127C12.5793 47.5541 12.7454 47.3218 12.9535 47.1307C13.1615 46.9395 13.407 46.7937 13.6743 46.7023C13.9417 46.611 14.2251 46.5761 14.5066 46.6C14.9854 46.6173 15.4626 46.5368 15.9093 46.3636C16.3559 46.1903 16.7626 45.9278 17.1044 45.5922C17.4463 45.2566 17.7162 44.8548 17.8977 44.4114C18.0791 43.9681 18.1684 43.4924 18.1599 43.0134V24.8934C18.1599 19.4267 22.1333 14.8934 28.0399 13.6134L29.0933 13.3867V10.2934C29.0904 9.97885 29.2123 9.67602 29.4322 9.45113C29.6521 9.22624 29.9521 9.09761 30.2666 9.09336H33.7733C34.0878 9.09761 34.3878 9.22624 34.6077 9.45113C34.8276 9.67602 34.9494 9.97885 34.9466 10.2934V13.4L35.9866 13.64C41.8533 14.9467 45.7866 19.4667 45.7866 24.8934V43.0134C45.7866 45.1734 47.8933 46.2534 49.1333 46.56L49.4399 46.6C49.7225 46.5743 50.0073 46.6078 50.2761 46.6983C50.545 46.7888 50.7921 46.9344 51.0016 47.1257C51.2111 47.317 51.3784 47.5499 51.4929 47.8095C51.6074 48.0691 51.6665 48.3497 51.6665 48.6334C51.6665 48.9171 51.6074 49.1977 51.4929 49.4573C51.3784 49.7168 51.2111 49.9497 51.0016 50.141C50.7921 50.3323 50.545 50.4779 50.2761 50.5684C50.0073 50.6589 49.7225 50.6924 49.4399 50.6667Z" fill="#046A38"/>
<path d="M11.4935 31.2129C11.3184 31.213 11.145 31.1785 10.9832 31.1115C10.8214 31.0445 10.6744 30.9463 10.5506 30.8225C10.4268 30.6987 10.3285 30.5517 10.2616 30.3899C10.1946 30.2281 10.1601 30.0547 10.1602 29.8796V24.8972C10.162 21.2836 11.2083 17.7476 13.1732 14.7149C13.2681 14.5678 13.391 14.4409 13.535 14.3413C13.6789 14.2418 13.8411 14.1716 14.0122 14.1347C14.1832 14.0978 14.3599 14.095 14.5321 14.1264C14.7043 14.1578 14.8686 14.2228 15.0156 14.3177C15.1627 14.4126 15.2896 14.5356 15.3891 14.6795C15.4887 14.8235 15.5589 14.9856 15.5958 15.1567C15.6327 15.3278 15.6355 15.5045 15.6041 15.6767C15.5727 15.8488 15.5077 16.0131 15.4128 16.1602C13.7272 18.7626 12.8293 21.7965 12.8268 24.8972V29.8796C12.8269 30.0547 12.7924 30.2281 12.7254 30.3899C12.6584 30.5517 12.5602 30.6987 12.4364 30.8225C12.3126 30.9463 12.1656 31.0445 12.0038 31.1115C11.842 31.1785 11.6686 31.213 11.4935 31.2129ZM17.793 12.7708C17.5204 12.7709 17.2544 12.6874 17.0307 12.5317C16.8071 12.3759 16.6365 12.1554 16.5421 11.8997C16.4476 11.6441 16.4337 11.3656 16.5023 11.1019C16.5709 10.8381 16.7187 10.6017 16.9258 10.4245C17.6483 9.80683 18.4122 9.23931 19.2122 8.72593C19.5098 8.53702 19.8702 8.47366 20.2144 8.54971C20.5586 8.62577 20.8588 8.83504 21.0491 9.13176C21.2395 9.42848 21.3046 9.78852 21.2302 10.1331C21.1559 10.4777 20.9481 10.7789 20.6523 10.9707C19.955 11.4176 19.2894 11.9121 18.6602 12.4505C18.4187 12.6575 18.111 12.7712 17.7929 12.7708H17.793Z" fill="#046A38"/>
<path d="M23.8261 27.7867V48.5867C23.8201 49.0312 23.9478 49.4671 24.1927 49.8381C24.4376 50.209 24.7884 50.4977 25.1995 50.6667H14.5061C14.2246 50.6906 13.9412 50.6558 13.6739 50.5644C13.4065 50.4731 13.1611 50.3272 12.953 50.1361C12.745 49.945 12.5789 49.7127 12.4652 49.454C12.3516 49.1954 12.293 48.9159 12.293 48.6334C12.293 48.3509 12.3516 48.0714 12.4652 47.8127C12.5789 47.5541 12.745 47.3218 12.953 47.1307C13.1611 46.9395 13.4065 46.7937 13.6739 46.7023C13.9412 46.611 14.2246 46.5762 14.5061 46.6001C14.9849 46.6173 15.4622 46.5369 15.9088 46.3636C16.3555 46.1903 16.7621 45.9278 17.104 45.5922C17.4458 45.2566 17.7157 44.8548 17.8972 44.4115C18.0787 43.9681 18.1679 43.4924 18.1595 43.0134V24.8934C18.1595 19.4267 22.1328 14.8934 28.0395 13.6134L29.0928 13.3867V10.2934C29.09 9.97887 29.2118 9.67604 29.4317 9.45115C29.6516 9.22626 29.9516 9.09763 30.2661 9.09338H33.7728C34.0873 9.09763 34.3873 9.22626 34.6072 9.45115C34.8271 9.67604 34.949 9.97887 34.9461 10.2934V13.4001L34.9861 13.4134C31.7513 14.15 28.8715 15.9846 26.8369 18.6052C24.8022 21.2257 23.7383 24.4702 23.8261 27.7867Z" fill="#78BE20"/>
</svg>
